<?xml version="1.0" encoding="utf-8"?>
<!-- Generator: Adobe Illustrator 26.5.0, SVG Export Plug-In . SVG Version: 6.00 Build 0)  -->
<svg version="1.1" id="Layer_1" xmlns="http://www.w3.org/2000/svg" xmlns:xlink="http://www.w3.org/1999/xlink" x="0px" y="0px"
	 viewBox="0 0 398.79 398.79" style="enable-background:new 0 0 398.79 398.79;" xml:space="preserve">
<g>
	<g>
		
			<ellipse transform="matrix(0.7071 -0.7071 0.7071 0.7071 -82.4634 199.2769)" fill="#F9B500" cx="199.32" cy="199.18" rx="166.71" ry="166.71"/>
		<g>
			<path fill="#FFDE56" d="M199.32,398.58c-109.95,0-199.4-89.45-199.4-199.4S89.37-0.21,199.32-0.21s199.4,89.45,199.4,199.39
				S309.26,398.58,199.32,398.58z M199.32,32.47c-91.92,0-166.71,74.78-166.71,166.71c0,91.92,74.79,166.71,166.71,166.71
				s166.71-74.79,166.71-166.71C366.03,107.26,291.24,32.47,199.32,32.47z"/>
		</g>
		<g>
			<path fill="#FFDE56" d="M252.6,272.05c-8.72,8.57-20.42,13.94-35.09,16.1v25.71h-23.62v-25.25c-10.35-0.77-19.96-2.78-28.83-6.02
				c-8.88-3.24-16.64-7.64-23.28-13.2l10.19-21.77c13.43,10.5,27.94,16.29,43.54,17.37v-48.17c-10.35-2.62-19.07-5.52-26.17-8.68
				c-7.1-3.16-13.05-7.88-17.83-14.13c-4.79-6.25-7.18-14.4-7.18-24.43c0-8.34,2.08-15.94,6.25-22.81
				c4.17-6.87,10-12.58,17.49-17.14c7.49-4.55,16.1-7.45,25.82-8.69V95.23h23.62v25.47c8.95,1.08,17.37,3.24,25.24,6.49
				c7.87,3.24,14.51,7.34,19.92,12.27l-10.19,21.77c-11.27-9.26-23.47-14.82-36.59-16.68v50.26c10.34,2.63,18.91,5.44,25.71,8.45
				c6.79,3.01,12.51,7.53,17.14,13.55c4.63,6.02,6.95,13.9,6.95,23.62C265.68,252.95,261.32,263.49,252.6,272.05z M179.76,181.04
				c3.7,3.32,8.95,6.14,15.75,8.45v-44.7c-6.64,1.39-11.85,4.1-15.63,8.11c-3.79,4.02-5.67,9.03-5.67,15.06
				C174.2,173.36,176.06,177.72,179.76,181.04z M230.71,256.08c3.39-3.78,5.1-8.69,5.1-14.71c0-4.78-1.7-8.64-5.1-11.58
				c-3.4-2.93-8.34-5.4-14.82-7.41v41.46C222.37,262.44,227.31,259.86,230.71,256.08z"/>
		</g>
		<path fill="#FFF1BB" d="M12.08,199.18C12.08,91.27,98.25,3.11,205.4-0.11c-2.02-0.06-4.04-0.1-6.08-0.1
			C89.37-0.21-0.08,89.23-0.08,199.18s89.45,199.4,199.4,199.4c2.03,0,4.06-0.04,6.08-0.1C98.25,395.25,12.08,307.09,12.08,199.18z"
			/>
		<path fill="#DF9800" d="M199.32,32.47c-1.78,0-3.55,0.04-5.32,0.09c89.47,2.82,161.39,76.47,161.39,166.61
			c0,90.14-71.92,163.79-161.39,166.62c1.77,0.06,3.54,0.09,5.32,0.09c91.92,0,166.71-74.79,166.71-166.71
			C366.03,107.26,291.24,32.47,199.32,32.47z"/>
		<g>
			<path fill="#FFDE56" d="M175.35,175.67c3.7,3.32,8.95,6.14,15.75,8.45v-44.7c-6.64,1.39-11.85,4.1-15.63,8.11
				c-3.79,4.02-5.67,9.03-5.67,15.06C169.79,168,171.64,172.35,175.35,175.67z M226.3,250.71c3.39-3.78,5.1-8.69,5.1-14.71
				c0-4.78-1.7-8.64-5.1-11.58c-3.4-2.93-8.34-5.4-14.82-7.41v41.46C217.96,257.08,222.9,254.49,226.3,250.71z M248.18,266.69
				c-8.72,8.57-20.42,13.94-35.09,16.1v25.71h-23.62v-25.25c-10.35-0.77-19.96-2.78-28.83-6.02c-8.88-3.24-16.64-7.64-23.28-13.2
				l10.19-21.77c13.43,10.5,27.94,16.29,43.54,17.37v-48.17c-10.35-2.62-19.07-5.52-26.17-8.68c-7.1-3.16-13.05-7.88-17.83-14.13
				c-4.79-6.25-7.18-14.4-7.18-24.43c0-8.34,2.08-15.94,6.25-22.81c4.17-6.87,10-12.58,17.49-17.14c7.49-4.55,16.1-7.45,25.82-8.69
				V89.87h23.62v25.47c8.95,1.08,17.37,3.24,25.24,6.49c7.87,3.24,14.51,7.34,19.92,12.27l-10.19,21.77
				c-11.27-9.26-23.47-14.82-36.59-16.68v50.26c10.34,2.63,18.91,5.44,25.71,8.45c6.79,3.01,12.51,7.53,17.14,13.55
				c4.63,6.02,6.95,13.9,6.95,23.62C261.27,247.58,256.9,258.12,248.18,266.69z"/>
		</g>
	</g>
</g>
</svg>
